<svg xmlns="http://www.w3.org/2000/svg" viewBox="0 129.445 595.275 567">
  <path d="M161.157,214.65H300.37v55.916h-55.915v54.967h55.915v163.658
    c0,32.899,26.922,59.815,59.814,59.815h135.748v0.42c0,31.336-25.684,57.019-57.018,57.019H161.157
    c-31.336,0-57.019-25.659-57.019-57.019v-277.76C104.138,240.309,129.797,214.65,161.157,214.65L161.157,214.65z M356.003,214.65
    h82.912c30.992,0,56.41,25.082,57,55.916H356.003V214.65z M495.933,325.533v167.841H388.552c-17.904,0-32.549-14.651-32.549-32.549
    V325.533H495.933z"/>
</svg>
